<?xml version="1.0" encoding="utf-8"?>
<!-- Generator: Adobe Illustrator 26.2.1, SVG Export Plug-In . SVG Version: 6.00 Build 0)  -->
<svg version="1.1" id="Layer_1" xmlns="http://www.w3.org/2000/svg" xmlns:xlink="http://www.w3.org/1999/xlink" x="0px" y="0px"
	 viewBox="0 0 300 300" style="enable-background:new 0 0 300 300;" xml:space="preserve">
<style type="text/css">
	.st0{fill:#1A3955;}
	.st1{fill:#FFFFFF;}
	.st2{fill:#8AD4DF;}
	.st3{fill:#1A3A54;}
	.st4{fill:#F37067;}
	.st5{fill:#193954;}
</style>
<path class="st3" d="M149.99,49.56C94.52,49.57,49.55,94.54,49.56,150.01c0,55.48,44.98,100.44,100.45,100.43
	c55.47-0.01,100.43-44.97,100.43-100.44C250.42,94.53,205.46,49.57,149.99,49.56z M128.68,88.52c5.45-5.45,12.99-8.83,21.3-8.83
	c16.64,0,30.14,13.49,30.14,30.14c0,16.64-13.49,30.13-30.14,30.13c-16.64,0-30.13-13.49-30.13-30.13
	C119.86,101.51,123.23,93.97,128.68,88.52z M149.99,222.32c-24.24,0-46.86-12.14-60.26-32.34c0.3-19.99,40.17-30.94,60.26-30.94
	c20.09,0,59.97,10.94,60.27,30.94C196.85,210.18,174.23,222.32,149.99,222.32z"/>
</svg>
