<?xml version="1.0" encoding="utf-8"?>
<!-- Generator: Adobe Illustrator 26.2.1, SVG Export Plug-In . SVG Version: 6.00 Build 0)  -->
<svg version="1.1" id="Layer_1" xmlns="http://www.w3.org/2000/svg" xmlns:xlink="http://www.w3.org/1999/xlink" x="0px" y="0px"
	 viewBox="0 0 300 300" style="enable-background:new 0 0 300 300;" xml:space="preserve">
<style type="text/css">
	.st0{fill:#1A3955;}
	.st1{fill:#FFFFFF;}
	.st2{fill:#8AD4DF;}
	.st3{fill:#1A3A54;}
	.st4{fill:#F37067;}
	.st5{fill:#193954;}
</style>
<g id="Group_82_00000172439694855599057310000007381016639621190049_">
	<path id="Path_43_00000010280376437125228000000008097332064211568827_" class="st0" d="M241.04,229.85
		c0.01-30.53,0.05-61.06-0.06-91.58c0.22-3.33-0.82-6.62-2.9-9.22h-0.01c-0.82,0.73-1.66,1.4-2.44,2.16
		c-4.55,4.47-9.09,8.94-13.63,13.42c-2.84,3.56-6.08,6.78-9.66,9.6c-3.18,4.37-7.03,8.23-11.4,11.4c-1.05,1.55-2.24,2.98-3.56,4.29
		c-1.29,1.29-2.7,2.46-4.22,3.5c-2.74,3.97-6.17,7.39-10.14,10.14c-0.26,0.39-0.53,0.76-0.81,1.13c-0.02,0.02-0.03,0.03-0.04,0.05
		c-0.22,0.29-0.45,0.59-0.7,0.87c-0.29,0.37-0.6,0.73-0.92,1.08c-0.19,0.21-0.39,0.42-0.59,0.63c-0.19,0.21-0.39,0.42-0.6,0.62
		c-0.05,0.06-0.12,0.12-0.18,0.17c-0.19,0.19-0.39,0.39-0.59,0.57c-0.16,0.15-0.32,0.29-0.49,0.43c-0.22,0.19-0.43,0.39-0.66,0.56
		c-0.71,0.59-1.45,1.14-2.22,1.66c-0.01,0.01-0.01,0.02-0.02,0.02c-4.69,7.01-12.06,11.77-20.37,13.16
		c-0.21,0.06-0.41,0.12-0.62,0.16c-0.2,0.06-0.39,0.1-0.59,0.14c-0.2,0.05-0.4,0.09-0.59,0.12c-0.4,0.08-0.8,0.13-1.21,0.17
		c-0.37,0.04-0.74,0.07-1.1,0.08c-0.23,0.01-0.46,0.02-0.7,0.02H150c-0.24,0-0.48-0.01-0.72-0.02c-0.39-0.02-0.79-0.05-1.19-0.09
		c-0.17-0.02-0.35-0.04-0.52-0.07c-0.19-0.02-0.39-0.05-0.58-0.09c-0.2-0.04-0.4-0.08-0.6-0.12c-0.21-0.04-0.41-0.09-0.61-0.14
		c-0.19-0.05-0.38-0.11-0.57-0.16h-0.02c-3.46-0.26-6.78-1.51-9.56-3.59c-0.01,0-0.01-0.01-0.02-0.01
		c-3.86-1.93-7.17-4.81-9.61-8.37c-0.01-0.01-0.02-0.02-0.03-0.02c-0.7-0.56-1.4-1.09-2.02-1.71
		c-11.46-11.44-22.91-22.88-34.34-34.34c-0.7-0.7-1.28-1.5-1.92-2.24v-0.01c-1.34-1.05-2.63-2.16-3.87-3.32
		c-0.01,0-0.01,0-0.01-0.01c-0.41-0.39-0.82-0.78-1.22-1.18c-1.61-1.6-3.12-3.29-4.53-5.08v-0.01
		c-5.69-5.18-11.12-10.62-16.31-16.32l-0.01,0.04c-1.07,0.79-1.88,1.85-2.36,3.05c-0.07,0.18-0.13,0.35-0.19,0.53
		c-0.08,0.26-0.15,0.53-0.19,0.8c-0.02,0.14-0.05,0.27-0.06,0.41c-0.06,0.45-0.08,0.9-0.05,1.36c0.05,31.75,0.08,63.49,0.08,95.21
		c-0.09,0.6-0.13,1.2-0.12,1.79c0,0.22,0.02,0.42,0.04,0.63c0.01,0.12,0.02,0.22,0.03,0.33c-0.01,0.01,0,0.02,0,0.02
		c0.02,0.12,0.02,0.26,0.04,0.39c0.87,5.39,5.95,9.05,11.34,8.19h159.55c0.97,0.14,1.94,0.14,2.9-0.01
		C238.14,240.25,241.85,235.22,241.04,229.85z M191.67,194.34c2.17-2.09,3.35-3.26,4.42-3.48c0.14-0.03,0.26-0.05,0.39-0.05
		c1.16,0,2.32,1.15,4.64,3.48c9.66,9.65,19.31,19.3,28.95,28.96c0.93,0.7,1.55,1.74,1.73,2.89h-0.02c-1.04,0.84-2.49,1.91-3.79,3.14
		c-1.17,1.1-1.8,1.82-2.28,2.13c-0.06,0.04-0.12,0.07-0.17,0.09c-0.71,0.34-1.17-0.36-2.97-2.16
		c-10.31-10.27-20.55-20.57-30.91-30.81C190.05,196.91,189.94,196,191.67,194.34z M69.77,223.88c0.06-0.1,0.13-0.19,0.2-0.29
		c0.06-0.09,0.13-0.17,0.2-0.26c0.38-0.48,0.88-1.02,1.51-1.65c0.37-0.37,0.77-0.77,1.22-1.22l28.56-28.55
		c0.63-0.63,1.3-1.21,1.88-1.75c1.02,0.17,1.49,0.9,2.05,1.44c3.28,3.16,4.46,4.29,3.55,6.01c-0.15,0.29-0.36,0.59-0.63,0.93
		c-0.14,0.18-0.3,0.37-0.49,0.56c-0.2,0.22-0.42,0.46-0.66,0.72c-0.22,0.24-0.48,0.49-0.75,0.76c-0.26,0.27-0.56,0.56-0.86,0.87
		c-7.18,7.18-14.38,14.33-21.56,21.53c-1.21,1.21-2.42,2.43-3.61,3.64c-1.2,1.21-2.39,2.41-3.58,3.62c-1.45,1.48-2.23,1.88-3.9,0.14
		C69.54,226.87,68.46,225.83,69.77,223.88z"/>
	<path id="Path_44_00000078026995408599247750000007557415001132998309_" class="st0" d="M61.76,128.31
		c-1.94,1.43-3.01,3.74-2.85,6.14c0.07,31.72,0.09,63.46,0.07,95.21c-0.88,5.39,2.78,10.47,8.17,11.35c1.05,0.17,2.11,0.17,3.16,0
		h159.5c5.38,0.79,10.39-2.92,11.18-8.3c0.14-0.96,0.14-1.94,0-2.9c0-30.53,0-61.06-0.06-91.59c0.22-3.33-0.82-6.62-2.91-9.21
		c-6.12-4.48-8.65-12.4-6.27-19.6c-0.11,0,0.16-0.12,0.23-0.06c5.12,5.12,10.4,10.19,15.36,15.51c2.23,2.48,3.43,5.72,3.35,9.05
		c-0.05,31.93-0.08,63.85-0.1,95.77c0.97,10.55-6.79,19.89-17.34,20.87c-1.15,0.11-2.31,0.11-3.46,0.01H70.27
		c-10.55,0.97-19.89-6.8-20.86-17.35c-0.11-1.15-0.11-2.3-0.01-3.45c-0.04-31.89-0.06-63.81-0.06-95.73
		c0.08-3.85,1.65-7.51,4.36-10.24c4.66-5.01,9.82-9.55,14.86-14.38c0,3.77,0,7.7,0,11.63c0,1.07-0.68,1.59-1.33,2.19l-5.49,5.07
		L61.76,128.31z"/>
	<path id="Path_45_00000052787410515552733070000018026564860100516496_" class="st0" d="M135.59,200.9
		c-3.86-1.93-7.17-4.8-9.61-8.36c0-27.23,0.02-54.45,0.07-81.68c0-9.97,0.06-19.94,0-29.91c0-2.1,0.32-2.88,2.7-2.87
		c23.83,0.1,47.67,0.1,71.5,0c2.16,0,2.65,0.63,2.58,2.67c-0.15,4.78,0,9.57-0.08,14.33c0,1.69,0.44,2.22,2.16,2.18
		c4.78-0.11,9.58,0.1,14.33-0.1c2.34-0.1,2.74,0.71,2.73,2.85c-0.07,14.86,0,29.69,0,44.58c-2.84,3.56-6.08,6.78-9.66,9.59
		c0-14.97,0-29.93,0-44.89c0-1.92-0.46-2.5-2.45-2.49c-17.55,0.08-35.11,0.08-52.66,0c-2,0-2.45,0.57-2.45,2.5
		c0.06,31.72,0.08,63.46,0.06,95.21c-3.14,0.92-6.48,0.92-9.62,0c0-34.71,0-69.41,0-104.12c0-2.39,0.42-3.18,3.07-3.15
		c12.66,0.15,25.33,0.07,37.99,0.07c6.99,0,6.88,0,7.01-6.88c0-2.29-0.62-2.76-2.82-2.75c-17.15,0.09-34.31,0.12-51.46,0
		c-2.83,0-3.34,0.83-3.34,3.45c0.08,36.6,0.08,73.2,0,109.8L135.59,200.9z"/>
	<path id="Path_46_00000002385154299308658000000006018289346259954844_" class="st0" d="M87.69,154.23
		c-3.58-2.81-6.81-6.03-9.62-9.59c0-25.35,0-50.7,0-76.05c0.14-5.28-4.02-9.67-9.3-9.82c-5.28-0.14-9.67,4.02-9.82,9.3
		c-0.01,0.21,0,0.41,0,0.62c-0.07,5.59-0.1,11.18,0,16.77c0,1.86-0.5,2.31-2.33,2.32c-7.3,0-7.3,0.1-7.3-7.17
		c0-4.1-0.06-8.19,0-12.29c0.06-10.45,8.55-18.89,19-18.89c38.51-0.09,77.03-0.12,115.55-0.08c9.6,0.14,17.61,7.35,18.77,16.88
		c0.24,1.89-0.31,2.57-2.18,2.3c-0.68-0.06-1.37-0.06-2.05,0c-2.95,0.12-5.31,0.37-6.34-3.84c-1.02-4.21-5.03-5.78-9.47-5.77
		c-19.95,0.05-39.93,0-59.87,0H85.1c2.44,5.24,3.35,11.07,2.61,16.8c0,26.15,0,52.29,0,78.44L87.69,154.23z"/>
	<path id="Path_47_00000175312991778915412220000007467399630307391402_" class="st0" d="M106.74,87.74c-2.58,0-5.12-0.06-7.75,0
		c-1.29,0-1.86-0.38-1.68-1.69c0.01-0.1,0.01-0.2,0-0.3c-0.31-7.62-0.31-7.62,7.35-7.62c3.38,0,6.76,0,10.14,0
		c1.29,0,1.86,0.38,1.68,1.69c-0.01,0.1-0.01,0.2,0,0.3c0.31,7.62,0.31,7.62-7.35,7.62H106.74L106.74,87.74z"/>
	<path id="Path_48_00000044151775618727677390000001335936844272671934_" class="st0" d="M106.64,116.47
		c-1.29,0.07-2.58,0.07-3.87,0c-1.8-0.2-4.66,1.02-5.2-0.6c-0.52-2.73-0.59-5.52-0.2-8.27c0-0.8,0.83-0.68,1.39-0.68
		c5.36,0,10.73,0,16.09,0c1.02,0,1.5,0.25,1.64,1.46c0.86,8.09,0.85,8.14-7.17,8.14h-2.68L106.64,116.47z"/>
	<path id="Path_49_00000053525168017159782480000012123976503181093036_" class="st0" d="M106.62,145.22c-0.8,0-1.6,0-2.39,0
		c-2.24-0.15-5.64,1.02-6.47-0.48c-1.15-2.05-0.38-5.18-0.47-7.84c0-1.14,0.6-1.26,1.5-1.26c5.36,0,10.73,0,16.09,0
		c1.1,0,1.48,0.3,1.61,1.48c0.83,8.12,0.87,8.11-7.17,8.11L106.62,145.22z"/>
	<path id="Path_50_00000139996889118745076650000008319298229847690402_" class="st0" d="M175.2,191.32
		c-9.56-4.57-13.6-16.03-9.03-25.59c4.57-9.56,16.03-13.6,25.59-9.03c2.85,1.36,5.31,3.41,7.18,5.95c0.71,0.96,1.3,2.05,1.95,3
		c-2.08,3.06-4.71,5.7-7.77,7.78c-0.37-4.84-4.24-8.68-9.09-9.01c-5.09-0.24-9.49,3.52-10.04,8.59c-0.47,5.36,3.49,10.09,8.85,10.56
		c0.04,0,0.09,0.01,0.14,0.01c-2.08,3.06-4.72,5.69-7.78,7.77L175.2,191.32z"/>
	<path class="st0" d="M108.94,197.61c0.9-1.72-0.27-2.85-3.55-6.01c-0.56-0.54-1.03-1.27-2.05-1.44c-0.58,0.54-1.25,1.11-1.88,1.75
		L72.9,220.46c-0.45,0.45-0.85,0.85-1.22,1.22c0.37-0.39,0.79-0.8,1.24-1.27l28.56-28.55c0.63-0.62,1.3-1.21,1.88-1.75
		c1.01,0.17,1.44,0.89,2.04,1.43C108.73,194.74,109.9,195.86,108.94,197.61z"/>
	<path class="st0" d="M231.85,226.14h-0.02c-1.03,0.84-2.48,1.91-3.79,3.14c-1.21,1.14-1.84,1.85-2.33,2.13
		c0.48-0.32,1.1-1.04,2.28-2.13c1.3-1.23,2.75-2.29,3.79-3.14h0.02c-0.18-1.15-0.8-2.19-1.73-2.89
		c-9.64-9.66-19.29-19.31-28.95-28.96c-2.33-2.33-3.48-3.48-4.64-3.48c1.18-0.05,2.33,1.11,4.7,3.48
		c9.65,9.66,19.3,19.31,28.94,28.96C231.06,223.95,231.68,224.99,231.85,226.14z"/>
</g>
</svg>
