<?xml version="1.0" encoding="utf-8"?>
<!-- Generator: Adobe Illustrator 26.2.1, SVG Export Plug-In . SVG Version: 6.00 Build 0)  -->
<svg version="1.1" id="Layer_1" xmlns="http://www.w3.org/2000/svg" xmlns:xlink="http://www.w3.org/1999/xlink" x="0px" y="0px"
	 viewBox="0 0 300 300" style="enable-background:new 0 0 300 300;" xml:space="preserve">
<style type="text/css">
	.st0{fill:#1A3955;}
	.st1{fill:#FFFFFF;}
	.st2{fill:#8AD4DF;}
	.st3{fill:#1A3A54;}
	.st4{fill:#F37067;}
	.st5{fill:#193954;}
</style>
<path class="st2" d="M218.65,96.89h-32.23V85c0-19.82-16.48-35.87-36.46-35.15c-19.07,0.68-33.88,16.99-33.88,36.08v10.96H81.35
	c-0.04,0-0.07,0.03-0.07,0.07V250.1c0,0.04,0.03,0.07,0.07,0.07h137.3c0.04,0,0.07-0.03,0.07-0.07V96.96
	C218.72,96.92,218.69,96.89,218.65,96.89z M128.57,85c0-13.21,11.34-23.81,24.79-22.58c11.79,1.08,20.56,11.47,20.56,23.31v11.16
	h-45.35V85z M206.23,237.6c0,0.04-0.03,0.07-0.07,0.07H93.84c-0.04,0-0.07-0.03-0.07-0.07V109.46c0-0.04,0.03-0.07,0.07-0.07h22.24
	v12.24c0,0.04,0.03,0.07,0.07,0.07h12.35c0.04,0,0.07-0.03,0.07-0.07v-12.24h45.35v12.24c0,0.04,0.03,0.07,0.07,0.07h12.35
	c0.04,0,0.07-0.03,0.07-0.07v-12.24h19.73c0.04,0,0.07,0.03,0.07,0.07V237.6z"/>
</svg>
