<?xml version="1.0" encoding="utf-8"?>
<!-- Generator: Adobe Illustrator 26.2.1, SVG Export Plug-In . SVG Version: 6.00 Build 0)  -->
<svg version="1.1" id="Layer_1" xmlns="http://www.w3.org/2000/svg" xmlns:xlink="http://www.w3.org/1999/xlink" x="0px" y="0px"
	 viewBox="0 0 300 300" style="enable-background:new 0 0 300 300;" xml:space="preserve">
<style type="text/css">
	.st0{fill:#1A3955;}
	.st1{fill:#FFFFFF;}
	.st2{fill:#8AD4DF;}
	.st3{fill:#1A3A54;}
	.st4{fill:#F37067;}
	.st5{fill:#193954;}
</style>
<path id="Icon_awesome-calendar-alt_00000080194133507744380940000011560985063520335783_" class="st4" d="M64.23,229.64
	c0,10.15,8.23,18.38,18.38,18.38h134.78c10.15,0,18.38-8.23,18.38-18.38V125.49H64.23V229.64z M186.76,154.59
	c0.01-2.53,2.06-4.59,4.59-4.59h15.32c2.53,0.01,4.59,2.06,4.59,4.59v15.32c-0.01,2.53-2.06,4.59-4.59,4.59h-15.32
	c-2.53-0.01-4.59-2.06-4.59-4.59V154.59z M186.76,203.6c0.01-2.53,2.06-4.59,4.59-4.59h15.32c2.53,0.01,4.59,2.06,4.59,4.59v15.32
	c-0.01,2.53-2.06,4.59-4.59,4.59h-15.32c-2.53-0.01-4.59-2.06-4.59-4.59V203.6z M137.75,154.59c0.01-2.53,2.06-4.59,4.59-4.59h15.32
	c2.53,0.01,4.59,2.06,4.59,4.59v15.32c-0.01,2.53-2.06,4.59-4.59,4.59h-15.32c-2.53-0.01-4.59-2.06-4.59-4.59V154.59z M137.75,203.6
	c0.01-2.53,2.06-4.59,4.59-4.59h15.32c2.53,0.01,4.59,2.06,4.59,4.59v15.32c-0.01,2.53-2.06,4.59-4.59,4.59h-15.32
	c-2.53-0.01-4.59-2.06-4.59-4.59V203.6z M88.74,154.59c0.01-2.53,2.06-4.59,4.59-4.59h15.32c2.53,0.01,4.59,2.06,4.59,4.59v15.32
	c-0.01,2.53-2.06,4.59-4.59,4.59H93.33c-2.53-0.01-4.59-2.06-4.59-4.59V154.59z M88.74,203.6c0.01-2.53,2.06-4.59,4.59-4.59h15.32
	c2.53,0.01,4.59,2.06,4.59,4.59v15.32c-0.01,2.53-2.06,4.59-4.59,4.59H93.33c-2.53-0.01-4.59-2.06-4.59-4.59V203.6z M217.39,76.48
	h-18.38V58.1c-0.01-3.38-2.75-6.11-6.13-6.13h-12.25c-3.38,0.01-6.11,2.75-6.13,6.13v18.38h-49.01V58.1
	c-0.01-3.38-2.75-6.11-6.13-6.13h-12.25c-3.38,0.01-6.11,2.75-6.13,6.13v18.38H82.61c-10.15,0-18.38,8.23-18.38,18.38v18.38h171.54
	V94.86C235.77,84.71,227.54,76.49,217.39,76.48z"/>
</svg>
