<?xml version="1.0" encoding="utf-8"?>
<!-- Generator: Adobe Illustrator 26.2.1, SVG Export Plug-In . SVG Version: 6.00 Build 0)  -->
<svg version="1.1" id="Layer_1" xmlns="http://www.w3.org/2000/svg" xmlns:xlink="http://www.w3.org/1999/xlink" x="0px" y="0px"
	 viewBox="0 0 300 300" style="enable-background:new 0 0 300 300;" xml:space="preserve">
<style type="text/css">
	.st0{fill:#1A3955;}
	.st1{fill:#FFFFFF;}
	.st2{fill:#8AD4DF;}
	.st3{fill:#1A3A54;}
	.st4{fill:#F37067;}
	.st5{fill:#193954;}
</style>
<g id="Icon_feather-home_00000142140677219886989340000011367186312970589096_" transform="translate(-4 -2.5)">
	<g id="Path_54_00000176017195128902701290000014136873348138803115_">
		<path class="st1" d="M220.37,253.01H87.63c-13.59,0-24.65-11.06-24.65-24.65V124.04c0-1.75,0.81-3.4,2.19-4.47l85.36-66.38
			c2.04-1.59,4.91-1.59,6.95,0l85.36,66.38c1.38,1.07,2.19,2.72,2.19,4.47v104.32C245.02,241.95,233.97,253.01,220.37,253.01z
			 M74.3,126.81v101.55c0,7.35,5.98,13.32,13.32,13.32h132.75c7.35,0,13.32-5.98,13.32-13.32V126.81L154,64.83L74.3,126.81z"/>
	</g>
	<g id="Path_55_00000034058108795140229200000006853631465656334480_">
		<path class="st1" d="M182.51,253c-3.13,0-5.66-2.54-5.66-5.66v-89.18h-45.64v89.18c0,3.13-2.54,5.66-5.66,5.66
			s-5.66-2.54-5.66-5.66v-94.84c0-3.13,2.54-5.66,5.66-5.66h56.96c3.13,0,5.66,2.54,5.66,5.66v94.84
			C188.17,250.46,185.63,253,182.51,253z"/>
	</g>
</g>
</svg>
