<?xml version="1.0" encoding="utf-8"?>
<!-- Generator: Adobe Illustrator 26.2.1, SVG Export Plug-In . SVG Version: 6.00 Build 0)  -->
<svg version="1.1" id="Layer_1" xmlns="http://www.w3.org/2000/svg" xmlns:xlink="http://www.w3.org/1999/xlink" x="0px" y="0px"
	 viewBox="0 0 300 300" style="enable-background:new 0 0 300 300;" xml:space="preserve">
<style type="text/css">
	.st0{fill:#1A3955;}
	.st1{fill:#FFFFFF;}
	.st2{fill:#8AD4DF;}
	.st3{fill:#1A3A54;}
	.st4{fill:#F37067;}
	.st5{fill:#193954;}
</style>
<g>
	<g>
		<path class="st1" d="M200.38,223.97c-2.63,0-5.2-0.98-7.24-2.87l-25.83-23.84h-67.03c-13.37,0-24.24-10.87-24.24-24.24V75.63
			c0-13.37,10.87-24.24,24.24-24.24h124.08c13.37,0,24.24,10.87,24.24,24.24v97.39c0,13.36-10.87,24.24-24.24,24.24h-13.19v15.94
			c0,4.33-2.47,8.11-6.44,9.84C203.32,223.66,201.84,223.97,200.38,223.97z M100.28,60.64c-8.27,0-15,6.73-15,15v97.39
			c0,8.27,6.73,14.99,15,14.99h68.84c1.16,0,2.28,0.44,3.14,1.22l27.15,25.06c0.63,0.58,1.28,0.42,1.62,0.27
			c0.34-0.15,0.9-0.52,0.9-1.38v-20.57c0-2.55,2.07-4.62,4.62-4.62h17.81c8.27,0,15-6.73,15-14.99V75.63c0-8.27-6.73-15-15-15
			H100.28z"/>
	</g>
	<g>
		<path class="st1" d="M92.69,248.61c-1.32,0-2.65-0.27-3.92-0.83c-3.61-1.58-5.86-5.01-5.86-8.96v-14.86H72.53
			c-11.66,0-21.14-9.48-21.14-21.14v-70.82c0-7.94,4.39-15.15,11.45-18.79c2.27-1.17,5.06-0.28,6.23,1.99
			c1.17,2.27,0.28,5.06-1.99,6.23c-3.98,2.05-6.45,6.11-6.45,10.58v70.82c0,6.56,5.34,11.9,11.9,11.9h15c2.55,0,4.62,2.07,4.62,4.62
			v19.48l4.04,3.79l-3.3-3.24l22.86-23.27c0.87-0.88,2.06-1.38,3.3-1.38h58.1c2.55,0,4.62,2.07,4.62,4.62
			c0,2.55-2.07,4.62-4.62,4.62H121l-21.5,21.89C97.51,247.68,95.12,248.61,92.69,248.61z"/>
	</g>
	<g>
		<g>
			<path class="st1" d="M164.79,94.79H112c-2.55,0-4.62-2.07-4.62-4.62c0-2.55,2.07-4.62,4.62-4.62h52.8c2.55,0,4.62,2.07,4.62,4.62
				C169.42,92.72,167.35,94.79,164.79,94.79z"/>
		</g>
		<g>
			<path class="st1" d="M212.66,162.32h-17.27c-2.55,0-4.62-2.07-4.62-4.62c0-2.55,2.07-4.62,4.62-4.62h17.27
				c2.55,0,4.62,2.07,4.62,4.62C217.28,160.25,215.21,162.32,212.66,162.32z"/>
		</g>
		<g>
			<path class="st1" d="M212.66,119.95H112c-2.55,0-4.62-2.07-4.62-4.62c0-2.55,2.07-4.62,4.62-4.62h100.66
				c2.55,0,4.62,2.07,4.62,4.62C217.28,117.88,215.21,119.95,212.66,119.95z"/>
		</g>
	</g>
</g>
</svg>
