<?xml version="1.0" encoding="utf-8"?>
<!-- Generator: Adobe Illustrator 26.2.1, SVG Export Plug-In . SVG Version: 6.00 Build 0)  -->
<svg version="1.1" id="Layer_1" xmlns="http://www.w3.org/2000/svg" xmlns:xlink="http://www.w3.org/1999/xlink" x="0px" y="0px"
	 viewBox="0 0 300 300" style="enable-background:new 0 0 300 300;" xml:space="preserve">
<style type="text/css">
	.st0{fill:#1A3955;}
	.st1{fill:#FFFFFF;}
	.st2{fill:#8AD4DF;}
	.st3{fill:#1A3A54;}
	.st4{fill:#F37067;}
	.st5{fill:#193954;}
</style>
<g id="Icon_feather-send_00000060715318666101472240000001347532977869580464_" transform="translate(-1.5 -0.879)">
	<g id="Path_310_00000000191922291639742350000004629821213204574878_">
		<path class="st3" d="M144.3,163.58c-1.41,0-2.82-0.54-3.89-1.61c-2.15-2.15-2.15-5.63,0-7.78l79.2-79.2
			c2.15-2.15,5.63-2.15,7.78,0c2.15,2.15,2.15,5.63,0,7.78l-79.2,79.2C147.11,163.04,145.71,163.58,144.3,163.58z"/>
	</g>
	<g id="Path_311_00000120532843099270577490000017425594611357021328_">
		<path class="st3" d="M173.1,228.38c-2.17,0-4.14-1.27-5.03-3.27l-27.94-62.87l-62.87-27.94c-2.06-0.92-3.35-3-3.26-5.25
			c0.09-2.25,1.55-4.22,3.68-4.97l144-50.4c2-0.7,4.21-0.19,5.71,1.3c1.49,1.49,2,3.71,1.3,5.71l-50.4,144
			c-0.75,2.13-2.71,3.59-4.97,3.68C173.25,228.38,173.17,228.38,173.1,228.38z M94.41,129.89l52.12,23.16
			c1.24,0.55,2.24,1.55,2.79,2.79l23.17,52.12l42.04-120.12L94.41,129.89z"/>
	</g>
</g>
</svg>
