<?xml version="1.0" encoding="utf-8"?>
<!-- Generator: Adobe Illustrator 26.2.1, SVG Export Plug-In . SVG Version: 6.00 Build 0)  -->
<svg version="1.1" id="Layer_1" xmlns="http://www.w3.org/2000/svg" xmlns:xlink="http://www.w3.org/1999/xlink" x="0px" y="0px"
	 viewBox="0 0 300 300" style="enable-background:new 0 0 300 300;" xml:space="preserve">
<style type="text/css">
	.st0{fill:#1A3955;}
	.st1{fill:#FFFFFF;}
	.st2{fill:#8AD4DF;}
	.st3{fill:#1A3A54;}
	.st4{fill:#F37067;}
	.st5{fill:#193954;}
</style>
<g id="Icon_feather-upload-cloud" transform="translate(0.015 -2.998)">
	<g id="Path_306">
		<path class="st3" d="M179.42,187.89c-1.41,0-2.82-0.54-3.89-1.61l-25.51-25.51l-25.51,25.51c-2.15,2.15-5.63,2.15-7.78,0
			c-2.15-2.15-2.15-5.63,0-7.78l29.4-29.4c2.15-2.15,5.63-2.15,7.78,0l29.4,29.4c2.15,2.15,2.15,5.63,0,7.78
			C182.24,187.35,180.83,187.89,179.42,187.89z"/>
	</g>
	<g id="Path_307">
		<path class="st3" d="M150.02,224.64c-3.04,0-5.5-2.46-5.5-5.5v-66.15c0-3.04,2.46-5.5,5.5-5.5s5.5,2.46,5.5,5.5v66.15
			C155.52,222.18,153.06,224.64,150.02,224.64z"/>
	</g>
	<g id="Path_308">
		<path class="st3" d="M211.69,205.46c-1.95,0-3.83-1.04-4.83-2.87c-1.46-2.67-0.47-6.01,2.19-7.46c7.33-4,12.66-10.61,15.02-18.62
			c2.35-8.01,1.45-16.45-2.55-23.78c-5.47-10.04-15.98-16.28-27.41-16.29h-9.26c-2.51,0-4.7-1.7-5.33-4.12
			c-7.35-28.45-36.49-45.62-64.94-38.26c-13.78,3.56-25.35,12.28-32.58,24.54c-7.23,12.26-9.25,26.61-5.68,40.39
			c2.09,8.1,6.13,15.69,11.67,21.96c2.01,2.28,1.8,5.75-0.48,7.76c-2.28,2.01-5.75,1.8-7.76-0.48
			c-6.68-7.56-11.55-16.72-14.07-26.49c-4.3-16.63-1.86-33.93,6.85-48.73c8.72-14.8,22.68-25.31,39.31-29.61
			c32.93-8.51,66.61,10.2,77.13,42.04h5.15c15.46,0.01,29.66,8.45,37.06,22.02c5.4,9.91,6.63,21.33,3.44,32.15
			s-10.39,19.77-20.3,25.17C213.49,205.24,212.58,205.46,211.69,205.46z"/>
	</g>
	<g id="Path_309">
		<path class="st3" d="M179.42,187.89c-1.41,0-2.82-0.54-3.89-1.61l-25.51-25.51l-25.51,25.51c-2.15,2.15-5.63,2.15-7.78,0
			c-2.15-2.15-2.15-5.63,0-7.78l29.4-29.4c2.15-2.15,5.63-2.15,7.78,0l29.4,29.4c2.15,2.15,2.15,5.63,0,7.78
			C182.24,187.35,180.83,187.89,179.42,187.89z"/>
	</g>
</g>
</svg>
