<?xml version="1.0" encoding="utf-8"?>
<!-- Generator: Adobe Illustrator 26.2.1, SVG Export Plug-In . SVG Version: 6.00 Build 0)  -->
<svg version="1.1" id="Layer_1" xmlns="http://www.w3.org/2000/svg" xmlns:xlink="http://www.w3.org/1999/xlink" x="0px" y="0px"
	 viewBox="0 0 300 300" style="enable-background:new 0 0 300 300;" xml:space="preserve">
<style type="text/css">
	.st0{fill:#1A3955;}
	.st1{fill:#FFFFFF;}
	.st2{fill:#8AD4DF;}
	.st3{fill:#1A3A54;}
	.st4{fill:#F37067;}
	.st5{fill:#193954;}
</style>
<g id="Group_175">
	<path id="Path_105" class="st3" d="M103.42,101.09c0.04-31.33,23.56-50.44,47.37-50.02c23.22,0.41,45.84,19.29,45.69,50.1h12.94
		c11.09,0,16.57,4.49,17.86,15.67c1.14,9.87,1.57,19.83,2.17,29.76c1.63,26.89,3.24,53.77,4.68,80.69c0.2,3.5-0.19,7.01-1.14,10.39
		c-1.53,7.1-8.14,11.92-15.36,11.21c-44.42,0-88.85,0-133.27,0c-12.04,0-18.7-6.4-18.5-18.64c0.2-12.61,1.02-25.22,1.6-37.83
		c1.11-23.28,2.25-46.55,3.42-69.82c0-5.61,1.57-11.11,4.53-15.88c2.18-3.62,6.15-5.77,10.37-5.63c5.8,0.09,11.6,0,17.68,0
		 M149.8,236.96h66.6c4.61,0,5.69-1.02,6.01-5.67c0.08-1.21,0.08-2.43,0-3.64c-1.79-30.64-3.58-61.29-5.39-91.93
		c-0.32-5.45-0.65-10.9-1.19-16.33c-0.58-5.81-1.5-6.53-7.17-6.53l-117.97-0.1c-6.2,0-7.07,0.51-7.64,6.82
		c-0.72,7.97-1.02,15.98-1.41,23.97c-1.15,22.91-2.27,45.81-3.38,68.72c-0.3,6.06-0.79,12.12-0.73,18.18
		c0.05,5.42,1.46,6.5,6.73,6.5h65.54 M184.69,100.98c-0.15-15.27-5.8-27.26-19.46-34.28c-11.5-6.41-25.76-5.06-35.85,3.39
		c-9.54,7.3-14.79,18.9-13.98,30.9H184.69z"/>
	<path id="Path_106" class="st3" d="M150.23,140.94c-18.73-0.14-34.02,14.93-34.15,33.66c-0.14,18.73,14.93,34.02,33.66,34.15
		c18.73,0.14,34.02-14.93,34.15-33.66c0-0.12,0-0.23,0-0.35C183.84,156.16,168.82,141.08,150.23,140.94 M171.19,177.5
		c-0.71,0.7-1.66,1.09-2.65,1.1h-14.79v14.79c0.08,2.07-1.54,3.81-3.61,3.89c-2.07,0.08-3.81-1.54-3.89-3.61c0-0.09,0-0.18,0-0.28
		V178.6h-14.79c-2.07-0.08-3.69-1.82-3.62-3.89c0.07-1.97,1.65-3.55,3.62-3.62h14.79v-14.78c-0.08-2.07,1.54-3.81,3.61-3.89
		s3.81,1.54,3.89,3.61c0,0.09,0,0.18,0,0.28v14.78h14.79c2.08,0,3.76,1.69,3.75,3.76C172.29,175.85,171.89,176.81,171.19,177.5"/>
</g>
</svg>
