<?xml version="1.0" encoding="utf-8"?>
<!-- Generator: Adobe Illustrator 26.2.1, SVG Export Plug-In . SVG Version: 6.00 Build 0)  -->
<svg version="1.1" id="Layer_1" xmlns="http://www.w3.org/2000/svg" xmlns:xlink="http://www.w3.org/1999/xlink" x="0px" y="0px"
	 viewBox="0 0 458.65 200" style="enable-background:new 0 0 458.65 200;" xml:space="preserve">
<style type="text/css">
	.st0{fill:#193A54;}
	.st1{fill:#F37066;}
	.st2{fill:#FAC9C9;}
	.st3{fill:#88D3DE;}
	.st4{fill:#BBBBBB;}
	.st5{fill:#025B9D;}
	.st6{fill:#28A8E0;}
	.st7{fill:#FFFFFF;}
	.st8{font-family:'CenturyGothic';}
	.st9{font-size:65.9248px;}
	.st10{font-family:'BauhausITCbyBT-Medium';}
	.st11{font-size:41.9877px;}
</style>
<g>
	<g>
		<path class="st6" d="M160.79,109.67c9.45-1.35,9.44-1.35,29.47-4.99c28.54-6.2,33.03-6.91,33.03-6.91
			c17.96-3.8,43.26-4.87,43.26-4.87c12.46-0.58,35.74,1.23,35.74,1.23c16.7,1.35,32.22,5.47,32.22,5.47
			c10.31,2.61,30.55,9.91,30.55,9.91c18.62,7.56,35.64,20.08,35.64,20.08C384.63,115.08,358.11,103,358.11,103
			c-13.38-5.78-15.5-7-33.52-11.9c-14.87-4.76-39.99-6.89-39.99-6.89c-11.11-0.97-29.75-0.38-29.75-0.38
			C240.56,84.3,222.51,88,222.51,88c-7.43,1.84-24.63,5.95-24.63,5.95c-21.06,4.92-35.64,7.08-35.64,7.08
			c-10.2,2.22-32.06,4.5-32.06,4.5c-11.59,1.36-32.44,2.71-32.44,2.71c-12.85,0.67-32.07-0.29-32.07-0.29
			c-19.22-0.58-34.57-7.34-34.57-7.34c15.59,9.22,40.08,12.36,40.08,12.36c16.41,2.81,39.11,1.35,39.11,1.35
			c14.97,0,41.05-3.47,41.05-3.47L160.79,109.67z"/>
		<path class="st7" d="M430.55,117.33c0,0-37.35-12.29-45.56-14.02c-8.21-1.74-29.54-5.45-42.63-4.63c-5.5,0-26.17,2.61-34.67,5.03
			c-8.5,2.41-12.46,4.05-17.39,5.6c-4.93,1.54-20.67,5.79-36.41,8.59c-15.15,2.24-29.36,3.74-38.62,3.74
			c-9.27,0-24.08,1.86-47.53-0.26c-20.3-1.85-30.51-3.09-42.1-5.5c-11.59-2.41-27.72-6.76-36.12-9.27c0,0-14.87-4.25-27.61-10.15
			c0,0-25.89-12.36-33.81-18.93c0,0,21.73,10.33,26.36,12.07c4.64,1.74,23.76,8.98,37.48,12.65c13.72,3.67,21.93,5.02,31,6.76
			c9.08,1.73,27.91,4.06,33.61,4.53c5.69,0.49,32.45,1.07,41.33,0.3c8.89-0.77,29.36-3.28,41.14-5.12
			c11.78-1.83,24.24-4.26,38.24-6.96c14-2.71,31.58-7.04,42.68-8.39c11.12-1.37,30.33-1.2,44.05,1.42
			c15.09,2.88,19.6,4.04,26.34,6.04C400.08,103.72,420.58,112.25,430.55,117.33"/>
	</g>
	<g>
		<text transform="matrix(1 1.990000e-03 -1.990000e-03 1 64.5404 78.229)" class="st7 st8 st9">NovoCom</text>
	</g>
	<text transform="matrix(1 0 0 1 284.9775 153.0367)" class="st7 st10 st11">sms</text>
	<path class="st6" d="M294.38,178.4c1.37-1.15,2.49-2.65,3.06-3.23c6.77-6.88,9.69-6.16,16.71-5.47c10.71,1.05,21.48,1.54,32.23,2.2
		c9.33,0.58,14.61-3.95,14.69-13.32c0.11-13.04-0.14-26.1-0.54-39.14c-0.23-7.53-5.6-11.95-13.1-11.05
		c-18.47,2.19-36.93,4.43-55.36,6.87c-10.64,1.41-14.84,6.59-14.85,17.49c0,7.34-0.03,14.68,0.02,22.02
		c0.05,7.56,3.87,12.04,11.06,13.13c6.54,0.99,8.54,0.6,6.68,7.64C294.82,176.15,294.67,176.99,294.38,178.4z M319.74,165.42
		c-9.78-0.43-19.57-0.81-29.35-1.31c-6.09-0.31-8.47-2.82-8.53-8.89c-0.08-8.31-0.09-16.63-0.07-24.94
		c0.02-7.11,2.3-9.62,9.45-10.42c18.16-2.02,36.32-4.02,54.48-5.99c8.09-0.88,10.56,1.18,10.67,9.15
		c0.16,11.57,0.21,23.15,0.2,34.73c0,6.44-2.86,8.9-9.47,8.84"/>
</g>
</svg>
