<?xml version="1.0" encoding="utf-8"?>
<!-- Generator: Adobe Illustrator 26.2.1, SVG Export Plug-In . SVG Version: 6.00 Build 0)  -->
<svg version="1.1" id="Layer_1" xmlns="http://www.w3.org/2000/svg" xmlns:xlink="http://www.w3.org/1999/xlink" x="0px" y="0px"
	 viewBox="0 0 228.5 44" style="enable-background:new 0 0 228.5 44;" xml:space="preserve">
<style type="text/css">
	.st0{fill:#193A54;}
	.st1{fill:#F27067;}
</style>
<path id="Rectangle_64_00000074404597517815853440000003940783818613472415_" class="st0" d="M1,0h226.5c0.55,0,1,0.45,1,1v42
	c0,0.55-0.45,1-1,1H1c-0.55,0-1-0.45-1-1V1C0,0.45,0.45,0,1,0z"/>
<path id="Icon_material-content-copy_00000120531609159317810930000013034057193946680713_" class="st1" d="M35.81,11.73H22.57
	c-1.22,0-2.2,0.99-2.21,2.21v15.45h2.21V13.93h13.24V11.73z M39.12,16.14H26.98c-1.22,0-2.2,0.99-2.21,2.21v15.44
	c0,1.22,0.99,2.2,2.21,2.21h12.14c1.22,0,2.2-0.99,2.21-2.21V18.35C41.32,17.13,40.34,16.14,39.12,16.14z M39.12,33.79H26.98V18.35
	h12.14L39.12,33.79z"/>
</svg>
