<?xml version="1.0" encoding="utf-8"?>
<!-- Generator: Adobe Illustrator 26.2.1, SVG Export Plug-In . SVG Version: 6.00 Build 0)  -->
<svg version="1.1" id="Layer_1" xmlns="http://www.w3.org/2000/svg" xmlns:xlink="http://www.w3.org/1999/xlink" x="0px" y="0px"
	 viewBox="0 0 300 300" style="enable-background:new 0 0 300 300;" xml:space="preserve">
<style type="text/css">
	.st0{fill:#1A3955;}
	.st1{fill:#FFFFFF;}
	.st2{fill:#8AD4DF;}
	.st3{fill:#1A3A54;}
	.st4{fill:#F37067;}
	.st5{fill:#193954;}
</style>
<g>
	<path class="st1" d="M215.63,49.83H84.37c-7.62,0-13.82,6.2-13.82,13.82v172.71c0,7.62,6.2,13.82,13.82,13.82h131.26
		c7.62,0,13.82-6.2,13.82-13.82V63.64C229.45,56.02,223.25,49.83,215.63,49.83z M84.37,236.36V63.64h131.26l0.01,172.71H84.37z"/>
	<g>
		<g>
			<path class="st1" d="M205.27,90.14c0,3.82-3.09,6.91-6.91,6.91h-62.18c-3.82,0-6.91-3.09-6.91-6.91c0-3.82,3.09-6.91,6.91-6.91
				h62.18C202.18,83.24,205.27,86.33,205.27,90.14z"/>
			<circle class="st1" cx="105.09" cy="90.14" r="10.36"/>
		</g>
		<g>
			<circle class="st1" cx="105.09" cy="120.07" r="10.36"/>
			<path class="st1" d="M205.27,120.07c0,3.82-3.09,6.91-6.91,6.91h-62.18c-3.82,0-6.91-3.09-6.91-6.91c0-3.82,3.09-6.91,6.91-6.91
				h62.18C202.18,113.16,205.27,116.26,205.27,120.07z"/>
		</g>
		<g>
			<circle class="st1" cx="105.09" cy="150" r="10.36"/>
			<path class="st1" d="M205.27,150c0,3.82-3.09,6.91-6.91,6.91h-62.18c-3.82,0-6.91-3.09-6.91-6.91c0-3.82,3.09-6.91,6.91-6.91
				h62.18C202.18,143.09,205.27,146.18,205.27,150z"/>
		</g>
		<g>
			<circle class="st1" cx="105.1" cy="179.93" r="10.36"/>
			<path class="st1" d="M205.27,179.93c0,3.82-3.09,6.91-6.91,6.91h-62.18c-3.82,0-6.91-3.09-6.91-6.91c0-3.82,3.09-6.91,6.91-6.91
				h62.18C202.18,173.02,205.27,176.11,205.27,179.93z"/>
		</g>
		<g>
			<circle class="st1" cx="105.1" cy="209.86" r="10.36"/>
			<path class="st1" d="M205.27,209.86c0,3.82-3.09,6.91-6.91,6.91h-62.18c-3.82,0-6.91-3.09-6.91-6.91c0-3.82,3.09-6.91,6.91-6.91
				h62.18C202.18,202.95,205.27,206.04,205.27,209.86z"/>
		</g>
	</g>
</g>
</svg>
