<?xml version="1.0" encoding="utf-8"?>
<!-- Generator: Adobe Illustrator 26.2.1, SVG Export Plug-In . SVG Version: 6.00 Build 0)  -->
<svg version="1.1" id="Layer_1" xmlns="http://www.w3.org/2000/svg" xmlns:xlink="http://www.w3.org/1999/xlink" x="0px" y="0px"
	 viewBox="0 0 300 300" style="enable-background:new 0 0 300 300;" xml:space="preserve">
<style type="text/css">
	.st0{fill:#1A3955;}
	.st1{fill:#FFFFFF;}
	.st2{fill:#8AD4DF;}
	.st3{fill:#1A3A54;}
	.st4{fill:#F37067;}
	.st5{fill:#193954;}
</style>
<g>
	<path class="st2" d="M111.49,138.44h27.1h27.1h27.1c1.55,0,2.81-1.26,2.81-2.81V80.6c0-1.55-1.26-2.81-2.81-2.81h-27.1
		c-1.55,0-2.81,1.26-2.81,2.81v9.94H138.6c-1.55,0-2.81,1.26-2.81,2.81v9.94h-24.29c-1.55,0-2.81,1.26-2.81,2.81v9.94H84.39
		c-1.55,0-2.81,1.26-2.81,2.81v16.8c0,1.55,1.26,2.81,2.81,2.81H111.49z M168.51,83.4h21.49v49.42h-21.49V93.34V83.4z M141.41,96.15
		h21.49v36.68h-21.49v-26.74V96.15z M114.3,108.9h21.49v23.93H114.3v-13.99V108.9z M87.2,121.65h21.49v11.18H87.2V121.65z"/>
	<path class="st2" d="M235.73,197.94c0-10.25-3.99-19.89-11.24-27.14c-2.76-2.76-5.87-5.05-9.23-6.82V52.63
		c0-1.55-1.26-2.81-2.81-2.81H109.87c-0.74,0-1.46,0.3-1.99,0.82L65.1,93.44c-0.53,0.53-0.82,1.24-0.82,1.99v151.95
		c0,1.55,1.26,2.81,2.81,2.81h145.37c1.55,0,2.81-1.26,2.81-2.81V231.9c3.36-1.78,6.46-4.06,9.23-6.82
		C231.73,217.83,235.73,208.19,235.73,197.94z M224.44,216.34l-19.19-15.59h24.73C229.5,206.49,227.52,211.82,224.44,216.34z
		 M229.99,195.13h-29.83V165.3C215.98,166.65,228.64,179.3,229.99,195.13z M107.06,59.41v33.2h-33.2L107.06,59.41z M209.64,244.56
		H69.89V98.23h39.98c1.55,0,2.81-1.26,2.81-2.81V55.44h96.97v106.12c-3.91-1.32-8.05-2-12.3-2c-10.25,0-19.89,3.99-27.14,11.24
		c-7.25,7.25-11.24,16.89-11.24,27.14c0,10.25,3.99,19.89,11.24,27.14c7.25,7.25,16.89,11.24,27.14,11.24c4.25,0,8.39-0.69,12.3-2
		V244.56z M197.35,230.7c-18.07,0-32.76-14.7-32.76-32.76c0-17.12,13.2-31.21,29.96-32.64v32.64c0,0.85,0.38,1.65,1.04,2.18
		l25.32,20.57C214.93,226.86,206.58,230.7,197.35,230.7z"/>
	<rect x="84.39" y="179.55" class="st2" width="61.66" height="5.62"/>
	<rect x="84.39" y="199.53" class="st2" width="61.66" height="5.62"/>
	<rect x="84.39" y="219.52" class="st2" width="61.66" height="5.62"/>
</g>
</svg>
