<?xml version="1.0" encoding="utf-8"?>
<!-- Generator: Adobe Illustrator 26.2.1, SVG Export Plug-In . SVG Version: 6.00 Build 0)  -->
<svg version="1.1" id="Layer_1" xmlns="http://www.w3.org/2000/svg" xmlns:xlink="http://www.w3.org/1999/xlink" x="0px" y="0px"
	 viewBox="0 0 300 300" style="enable-background:new 0 0 300 300;" xml:space="preserve">
<style type="text/css">
	.st0{fill:#1A3955;}
	.st1{fill:#FFFFFF;}
	.st2{fill:#8AD4DF;}
	.st3{fill:#1A3A54;}
	.st4{fill:#F37067;}
	.st5{fill:#193954;}
</style>
<g id="Group_904">
	<path id="Path_300" class="st5" d="M66.49,149.79c0-25.75,0-51.49,0-77.24c-0.63-8.71,4.25-16.88,12.22-20.46
		c2.75-1.3,5.75-1.99,8.8-2.03c39.37-0.13,78.74-0.15,118.11-0.06c11.23-0.14,20.51,8.71,20.89,19.93
		c0.39,9.46,0.15,18.93,0.17,28.4c0,10.25,0,20.5,0,30.75c0.42,3.88-2.39,7.36-6.26,7.78c-0.22,0.02-0.44,0.04-0.66,0.04
		c-3.52,0.09-6.54-2.49-7.01-5.98c-0.12-1.01-0.17-2.03-0.14-3.04c0-18.31,0-36.62,0-54.93c0-6.45-2.47-8.89-8.96-8.89H89.27
		c-6.11,0-8.64,2.55-8.64,8.7c0,51.49,0,102.98,0,154.48c0,6.15,2.56,8.7,8.69,8.7c15.73,0,31.46,0,47.18,0
		c3.88-0.29,7.25,2.62,7.54,6.49c0.06,0.86-0.03,1.72-0.27,2.54c-0.85,2.97-3.56,5.02-6.64,5.02c-16.9,0.03-33.82,0.19-50.72-0.08
		c-10.47-0.47-18.95-8.68-19.75-19.14c-0.11-1.48-0.16-2.96-0.16-4.45C66.49,200.81,66.49,175.3,66.49,149.79"/>
	<path id="Path_301" class="st5" d="M173.25,236.96c0-5.12,0.15-10.11-0.05-15.08c-0.25-3.14,1.01-6.22,3.39-8.29
		c4.84-4.54,9.43-9.3,14.25-14.15c-4.87-4.86-9.56-9.7-14.41-14.33c-2.21-1.91-3.4-4.75-3.22-7.66c0.19-4.61,0.05-9.23,0.05-13.85
		v-2.36c-1.59-0.14-2.92-0.17-4.22-0.39c-3.15-0.56-5.24-3.57-4.67-6.72c0.44-2.46,2.42-4.37,4.9-4.71
		c0.39-0.06,0.78-0.09,1.17-0.09h56.83c3.21-0.23,5.99,2.18,6.22,5.39c0.21,2.9-1.76,5.51-4.61,6.11c-1.33,0.24-2.66,0.24-4.29,0.38
		v3.87c0,4.31-0.14,8.64,0.05,12.91c0.18,2.84-0.98,5.6-3.14,7.46c-4.19,3.99-8.22,8.16-12.31,12.26c-0.54,0.54-1.05,1.12-1.65,1.76
		l11.2,11.22c6.77,6.8,5.81,4.85,5.87,14.27c0,3.99,0,7.97,0,12.07c1.28,0.06,2.37,0.07,3.44,0.16c3.21,0.15,5.68,2.88,5.53,6.08
		c-0.14,2.95-2.47,5.32-5.41,5.53c-0.78,0.07-1.56,0.1-2.35,0.08h-54.71c-4.2-0.08-6.76-2.27-6.8-5.81
		c-0.04-3.55,2.47-5.77,6.65-5.93c0.66,0,1.37-0.09,2.3-0.16 M212.81,161.21h-27.85c0,5.14,0,10.13,0,15.11
		c0.04,0.46,0.25,0.89,0.57,1.22c4.43,4.51,8.89,8.98,13.49,13.62c4.54-4.53,8.91-8.87,13.24-13.29c0.33-0.42,0.51-0.94,0.5-1.47
		c0.03-5,0-9.97,0-15.22 M184.92,236.93h27.84c0-5.02,0-9.85,0-14.69c0.01-0.46-0.15-0.91-0.43-1.27
		c-4.37-4.44-8.78-8.84-13.29-13.37c-4.55,4.59-8.91,8.96-13.23,13.37c-0.45,0.41-0.74,0.97-0.82,1.57
		c-0.07,4.75-0.04,9.51-0.04,14.39"/>
	<path id="Path_302" class="st5" d="M146.36,99.43c-15.1,0-30.2,0-45.3,0c-3.07,0.33-6-1.32-7.31-4.11
		c-1.64-3.44-0.17-7.56,3.27-9.2c0.48-0.23,0.98-0.4,1.49-0.51c1.07-0.21,2.16-0.31,3.26-0.28c29.89,0,59.78,0,89.66,0
		c0.86-0.02,1.72,0.03,2.57,0.14c3.57,0.49,6.19,3.58,6.09,7.18c-0.07,3.7-3.07,6.68-6.77,6.72c-7.97,0.12-15.95,0.05-23.92,0.06
		L146.36,99.43"/>
	<path id="Path_303" class="st5" d="M146.58,137.81c-15.34,0-30.67,0-46,0c-3.86,0.26-7.19-2.65-7.45-6.51
		c-0.08-1.11,0.12-2.22,0.56-3.25c1.2-2.83,4.08-4.58,7.15-4.33c12.28,0.03,24.57,0.03,36.85,0c18.23,0,36.46,0,54.69,0
		c3.89-0.34,7.31,2.54,7.65,6.42c0.34,3.89-2.54,7.31-6.42,7.65c-0.41,0.04-0.82,0.04-1.22,0c-15.26,0-30.51,0-45.77,0"/>
	<path id="Path_304" class="st5" d="M115.35,176.24c-5.08,0-10.16,0.08-15.24,0c-3.87,0.02-7.03-3.1-7.05-6.97
		c-0.02-3.19,2.12-5.98,5.2-6.81c0.76-0.19,1.53-0.27,2.31-0.25c9.84,0,19.69,0,29.54,0c3.85-0.32,7.23,2.54,7.55,6.39
		c0.01,0.16,0.02,0.33,0.02,0.49c0.07,3.91-3.04,7.13-6.95,7.2c-0.21,0-0.41,0-0.62-0.02c-4.92,0.05-9.84,0-14.77,0V176.24z"/>
	<path id="Path_305" class="st5" d="M115.44,200.55c4.85,0,9.71,0,14.56,0c3.88-0.35,7.31,2.5,7.66,6.38
		c0.35,3.88-2.5,7.31-6.38,7.66c-0.38,0.03-0.76,0.04-1.14,0.01c-9.86,0.06-19.72,0.06-29.59,0c-3.88,0.21-7.2-2.76-7.41-6.64
		c-0.21-3.88,2.76-7.2,6.64-7.41c0.29-0.02,0.57-0.01,0.86,0.01C105.58,200.5,110.51,200.56,115.44,200.55"/>
</g>
</svg>
