<?xml version="1.0" encoding="utf-8"?>
<!-- Generator: Adobe Illustrator 26.2.1, SVG Export Plug-In . SVG Version: 6.00 Build 0)  -->
<svg version="1.1" id="Layer_1" xmlns="http://www.w3.org/2000/svg" xmlns:xlink="http://www.w3.org/1999/xlink" x="0px" y="0px"
	 viewBox="0 0 300 300" style="enable-background:new 0 0 300 300;" xml:space="preserve">
<style type="text/css">
	.st0{fill:#1A3955;}
	.st1{fill:#FFFFFF;}
	.st2{fill:#8AD4DF;}
	.st3{fill:#1A3A54;}
	.st4{fill:#F37067;}
	.st5{fill:#193954;}
</style>
<g>
	<path id="Path_290_00000031900940894724343320000007319046045766470282_" class="st3" d="M62.61,50.86h44.1
		c16.67,0,33.33-0.11,49.99,0.13c2.61,0.1,5.1,1.11,7.04,2.86c12.56,12.6,24.9,25.42,37.14,38.33c1.31,1.54,2.04,3.49,2.08,5.52
		c0.13,26.04,0.13,52.09,0,78.14c-0.1,2.02-0.81,3.96-2.04,5.57c-2.54,3.33-5.52,6.31-9.06,10.27v-91.59h-36.38V62.62H73.96v158.34
		c1.68,0.09,3.38,0.25,5.08,0.26c16.17,0,32.36,0.19,48.53-0.1c4.52-0.54,9,1.29,11.86,4.83c2.1,2.26,4.35,4.37,6.75,6.32H62.61
		V50.86z M186.17,93.25l-23.95-21.91v21.91H186.17z"/>
	<path id="Path_291_00000160876120008195807470000017116931307238165406_" class="st3" d="M176.84,220.81l43.58-47.86l16.97,14.76
		l-62.53,61.47l-38.07-40.62l16.44-14.33l23.59,26.58"/>
	
		<rect id="Rectangle_331_00000059287709976214454910000006913161431755343492_" x="103.1" y="158.26" class="st3" width="59.11" height="6.07"/>
	
		<rect id="Rectangle_332_00000131364746026442553370000012196193387880824457_" x="103.16" y="177.27" class="st3" width="59.23" height="5.82"/>
	
		<rect id="Rectangle_333_00000129899393009230835430000002867494361166552765_" x="103.06" y="139.57" class="st3" width="59.17" height="6.18"/>
	
		<rect id="Rectangle_334_00000022528089763867476950000000811586940250288769_" x="102.97" y="120.82" class="st3" width="59.28" height="5.91"/>
</g>
</svg>
