<?xml version="1.0" encoding="utf-8"?>
<!-- Generator: Adobe Illustrator 26.2.1, SVG Export Plug-In . SVG Version: 6.00 Build 0)  -->
<svg version="1.1" id="Layer_1" xmlns="http://www.w3.org/2000/svg" xmlns:xlink="http://www.w3.org/1999/xlink" x="0px" y="0px"
	 viewBox="0 0 300 300" style="enable-background:new 0 0 300 300;" xml:space="preserve">
<style type="text/css">
	.st0{fill:#1A3955;}
	.st1{fill:#FFFFFF;}
	.st2{fill:#8AD4DF;}
	.st3{fill:#1A3A54;}
	.st4{fill:#F37067;}
	.st5{fill:#193954;}
</style>
<g>
	<path class="st2" d="M238.58,127.71h-9.43c-2.73-41.29-37.18-74.04-79.15-74.04c-41.97,0-76.42,32.76-79.15,74.04h-9.43
		c-12.67,0-22.98,10.31-22.98,22.98v23.78c0,12.67,10.31,22.98,22.98,22.98h10.72c4.75,0,8.61-3.86,8.61-8.61V153.9v-17.58V133
		c0-38.19,31.07-69.26,69.26-69.26c38.19,0,69.26,31.07,69.26,69.26v3.32v17.58v32.24c0,32.71-28.92,39.98-45.46,41.46
		c-2.07-4.69-6.76-7.96-12.21-7.96h-23.67c-7.37,0-13.35,5.98-13.35,13.35l0,0c0,7.37,5.98,13.35,13.35,13.35h23.67
		c5.71,0,10.57-3.58,12.48-8.62c14.4-1.09,26.79-5.19,36.16-12.03c9.55-6.98,15.65-16.61,18.01-28.22h10.35
		c12.67,0,22.98-10.31,22.98-22.98V150.7C261.57,138.02,251.25,127.71,238.58,127.71z"/>
	<path class="st2" d="M99.3,139.69h-7.58c0.2-4.4,1.59-7.87,4.15-10.39c2.56-2.53,5.85-3.79,9.87-3.79c2.48,0,4.67,0.52,6.56,1.57
		c1.9,1.05,3.41,2.55,4.55,4.52c1.14,1.97,1.71,3.97,1.71,6.01c0,2.42-0.69,5.03-2.07,7.83c-1.38,2.79-3.9,6.1-7.57,9.91l-4.58,4.83
		h14.55v7.19H90.61v-3.72l12.63-12.88c3.05-3.09,5.08-5.57,6.09-7.45c1.01-1.88,1.51-3.58,1.51-5.09c0-1.57-0.52-2.87-1.57-3.9
		c-1.05-1.03-2.39-1.54-4.04-1.54c-1.67,0-3.05,0.62-4.16,1.86C99.96,135.88,99.37,137.56,99.3,139.69z M147.81,151.79v-26.28h-7.74
		l-17.68,26.28v7.19h17.82v8.38h7.6v-8.38h3.64v-7.19H147.81z M140.2,151.79h-9.32l9.32-13.68V151.79z M154.25,174.63l18.32-49.26
		h5.42l-18.35,49.26H154.25z M182.61,126.54h26.78v4.08l-18.43,37.77l-6.56-3.19l15.33-31.37h-17.12V126.54z"/>
</g>
</svg>
