<?xml version="1.0" encoding="utf-8"?>
<!-- Generator: Adobe Illustrator 26.2.1, SVG Export Plug-In . SVG Version: 6.00 Build 0)  -->
<svg version="1.1" id="Layer_1" xmlns="http://www.w3.org/2000/svg" xmlns:xlink="http://www.w3.org/1999/xlink" x="0px" y="0px"
	 viewBox="0 0 300 300" style="enable-background:new 0 0 300 300;" xml:space="preserve">
<style type="text/css">
	.st0{fill:#1A3955;}
	.st1{fill:#FFFFFF;}
	.st2{fill:#8AD4DF;}
	.st3{fill:#1A3A54;}
	.st4{fill:#F37067;}
	.st5{fill:#193954;}
</style>
<path id="Icon_awesome-file-upload_00000016788257782532645350000005197656284707623863_" class="st4" d="M162.18,104.33V52.57
	H86.06c-5.03-0.01-9.12,4.06-9.13,9.09c0,0.01,0,0.03,0,0.04v176.6c-0.01,5.03,4.06,9.12,9.09,9.13c0.01,0,0.03,0,0.04,0h127.88
	c5.03,0.01,9.12-4.06,9.13-9.09c0-0.01,0-0.03,0-0.04V113.46h-51.76C166.28,113.45,162.19,109.36,162.18,104.33z M186.99,186.54
	h-24.81v30.45c0,3.36-2.73,6.09-6.09,6.09h-12.2c-3.36,0-6.09-2.73-6.09-6.09v-30.45h-24.81c-3.36,0-6.09-2.73-6.09-6.09
	c0-1.62,0.65-3.18,1.8-4.32l36.7-36.42c2.53-2.51,6.62-2.51,9.15,0l36.7,36.42c2.39,2.36,2.41,6.22,0.05,8.61
	C190.16,185.88,188.61,186.53,186.99,186.54L186.99,186.54z M220.41,92.52l-37.26-37.29c-1.72-1.71-4.04-2.67-6.47-2.66h-2.32v48.72
	h48.72v-2.32C223.08,96.54,222.12,94.23,220.41,92.52z"/>
</svg>
